HIERARCHY
ROOT hip
{
  OFFSET -21.13 83.5171 37.9532
  CHANNELS 6 Xposition Yposition Zposition Zrotation Xrotation Yrotation
  JOINT abdomen
  {
    OFFSET 0 20.6881 -0.73152
    CHANNELS 3 Zrotation Xrotation Yrotation
    JOINT chest
    {
      OFFSET 0 11.7043 -0.48768
      CHANNELS 3 Zrotation Xrotation Yrotation
      JOINT neck
      {
        OFFSET 0 22.1894 -2.19456
        CHANNELS 3 Zrotation Xrotation Yrotation
        JOINT head
        {
          OFFSET -0.24384 7.07133 1.2192
          CHANNELS 3 Zrotation Xrotation Yrotation
          JOINT leftEye
          {
            OFFSET 4.14528 8.04674 8.04672
            CHANNELS 3 Zrotation Xrotation Yrotation
            End Site
            {
              OFFSET 1 0 0
            }
          }
          JOINT rightEye
          {
            OFFSET -3.6576 8.04674 8.04672
            CHANNELS 3 Zrotation Xrotation Yrotation
            End Site
            {
              OFFSET 1 0 0
            }
          }
        }
      }
      JOINT rCollar
      {
        OFFSET -2.68224 19.2634 -4.8768
        CHANNELS 3 Zrotation Xrotation Yrotation
        JOINT rShldr
        {
          OFFSET -8.77824 -1.95073 1.46304
          CHANNELS 3 Zrotation Xrotation Yrotation
          JOINT rForeArm
          {
            OFFSET -28.1742 -1.7115 0.48768
            CHANNELS 3 Zrotation Xrotation Yrotation
            JOINT rHand
            {
              OFFSET -22.5879 0.773209 7.07136
              CHANNELS 3 Zrotation Xrotation Yrotation
              JOINT rThumb1
              {
                OFFSET -1.2192 -0.487915 3.41376
                CHANNELS 3 Zrotation Xrotation Yrotation
                JOINT rThumb2
                {
                  OFFSET -3.37035 -0.52449 3.41376
                  CHANNELS 3 Zrotation Xrotation Yrotation
                  End Site
                  {
                    OFFSET -1.78271 -1.18214 1.43049
                  }
                }
              }
              JOINT rIndex1
              {
                OFFSET -7.75947 0.938293 5.60832
                CHANNELS 3 Zrotation Xrotation Yrotation
                JOINT rIndex2
                {
                  OFFSET -2.54057 -0.884171 1.56538
                  CHANNELS 3 Zrotation Xrotation Yrotation
                  End Site
                  {
                    OFFSET -1.62519 -0.234802 1.16502
                  }
                }
              }
              JOINT rMid1
              {
                OFFSET -8.24714 1.18213 3.41376
                CHANNELS 3 Zrotation Xrotation Yrotation
                JOINT rMid2
                {
                  OFFSET -3.10165 -0.590103 1.0647
                  CHANNELS 3 Zrotation Xrotation Yrotation
                  End Site
                  {
                    OFFSET -2.48547 -0.328903 0.83742
                  }
                }
              }
              JOINT rRing1
              {
                OFFSET -8.82822 0.546677 1.51678
                CHANNELS 3 Zrotation Xrotation Yrotation
                JOINT rRing2
                {
                  OFFSET -2.60934 -0.819778 -0.0198488
                  CHANNELS 3 Zrotation Xrotation Yrotation
                  End Site
                  {
                    OFFSET -2.33842 -0.294052 0.168128
                  }
                }
              }
              JOINT rPinky1
              {
                OFFSET -8.27202 -0.0477905 -0.4584
                CHANNELS 3 Zrotation Xrotation Yrotation
                JOINT rPinky2
                {
                  OFFSET -1.82734 -0.647385 -0.700984
                  CHANNELS 3 Zrotation Xrotation Yrotation
                  End Site
                  {
                    OFFSET -1.69225 -0.51767 -0.607171
                  }
                }
              }
            }
          }
        }
      }
      JOINT lCollar
      {
        OFFSET 2.68224 19.2634 -4.8768
        CHANNELS 3 Zrotation Xrotation Yrotation
        JOINT lShldr
        {
          OFFSET 8.77824 -1.95073 1.46304
          CHANNELS 3 Zrotation Xrotation Yrotation
          JOINT lForeArm
          {
            OFFSET 28.1742 -1.7115 0.48768
            CHANNELS 3 Zrotation Xrotation Yrotation
            JOINT lHand
            {
              OFFSET 22.5879 0.773209 7.07136
              CHANNELS 3 Zrotation Xrotation Yrotation
              JOINT lThumb1
              {
                OFFSET 1.2192 -0.487915 3.41376
                CHANNELS 3 Zrotation Xrotation Yrotation
                JOINT lThumb2
                {
                  OFFSET 3.37035 -0.52449 3.41376
                  CHANNELS 3 Zrotation Xrotation Yrotation
                  End Site
                  {
                    OFFSET 1.78271 -1.18214 1.43049
                  }
                }
              }
              JOINT lIndex1
              {
                OFFSET 7.75947 0.938293 5.60832
                CHANNELS 3 Zrotation Xrotation Yrotation
                JOINT lIndex2
                {
                  OFFSET 2.54057 -0.884171 1.56538
                  CHANNELS 3 Zrotation Xrotation Yrotation
                  End Site
                  {
                    OFFSET 1.62519 -0.234802 1.16502
                  }
                }
              }
              JOINT lMid1
              {
                OFFSET 8.24714 1.18213 3.41376
                CHANNELS 3 Zrotation Xrotation Yrotation
                JOINT lMid2
                {
                  OFFSET 3.10165 -0.590103 1.0647
                  CHANNELS 3 Zrotation Xrotation Yrotation
                  End Site
                  {
                    OFFSET 2.48547 -0.328903 0.83742
                  }
                }
              }
              JOINT lRing1
              {
                OFFSET 8.82822 0.546677 1.51678
                CHANNELS 3 Zrotation Xrotation Yrotation
                JOINT lRing2
                {
                  OFFSET 2.60934 -0.819778 -0.0198488
                  CHANNELS 3 Zrotation Xrotation Yrotation
                  End Site
                  {
                    OFFSET 2.33842 -0.294052 0.168128
                  }
                }
              }
              JOINT lPinky1
              {
                OFFSET 8.27202 -0.0477905 -0.4584
                CHANNELS 3 Zrotation Xrotation Yrotation
                JOINT lPinky2
                {
                  OFFSET 1.82734 -0.647385 -0.700984
                  CHANNELS 3 Zrotation Xrotation Yrotation
                  End Site
                  {
                    OFFSET 1.69225 -0.51767 -0.607171
                  }
                }
              }
            }
          }
        }
      }
    }
  }
  JOINT rButtock
  {
    OFFSET -8.77824 4.35084 1.2192
    CHANNELS 3 Zrotation Xrotation Yrotation
    JOINT rThigh
    {
      OFFSET 0 -1.70687 -2.19456
      CHANNELS 3 Zrotation Xrotation Yrotation
      JOINT rShin
      {
        OFFSET 0 -36.8199 0.73152
        CHANNELS 3 Zrotation Xrotation Yrotation
        JOINT rFoot
        {
          OFFSET 0.73152 -45.1104 -5.12064
          CHANNELS 3 Zrotation Xrotation Yrotation
          End Site
          {
            OFFSET -1.1221 -3.69964 12.103
          }
        }
      }
    }
  }
  JOINT lButtock
  {
    OFFSET 8.77824 4.35084 1.2192
    CHANNELS 3 Zrotation Xrotation Yrotation
    JOINT lThigh
    {
      OFFSET 0 -1.70687 -2.19456
      CHANNELS 3 Zrotation Xrotation Yrotation
      JOINT lShin
      {
        OFFSET 0 -36.8199 0.73152
        CHANNELS 3 Zrotation Xrotation Yrotation
        JOINT lFoot
        {
          OFFSET -0.73152 -45.1104 -5.12064
          CHANNELS 3 Zrotation Xrotation Yrotation
          End Site
          {
            OFFSET 1.1221 -3.69964 12.103
          }
        }
      }
    }
  }
}
MOTION
Frames:	8
Frame Time:	0.00833333
74.1484 83.6799 8.62254 0.206251 -1.3415 -84.5251 -0.720003 12.5631 0.860373 -0.171522 -0.401668 0.339407 5.94758 8.07656 4.1601 -7.83206 -30.2189 5.54786 -0 0 0 -0 0 0 1.9806e-014 -9.49451e-013 -8.50872e-014 83.1749 31.6147 -11.8231 -19.5546 -12.4616 37.6103 -0.900359 -25.9028 -3.91357 -4.16951e-010 1.46955e-010 -9.96447e-011 -7.20443e-010 2.64593e-010 -1.81213e-010 -4.16944e-010 1.46955e-010 -9.96498e-011 7.73091 5.47488 0.417314 -4.16955e-010 1.46951e-010 -9.96303e-011 2.90554 0.965183 0.102902 -4.16943e-010 1.46955e-010 -9.96433e-011 10.2786 0.731801 0.0259123 -4.1696e-010 1.46957e-010 -9.96323e-011 2.22167 -0.733487 -0.20892 1.97705e-014 -9.49451e-013 -8.52844e-014 -76.2304 41.3422 1.27718 17.9662 -10.6501 -33.9449 0.038281 -5.57511 0.786038 1.47138e-010 -1.24875e-010 -8.01495e-011 2.57622e-010 -2.16183e-010 -1.38527e-010 1.47127e-010 -1.24874e-010 -8.01367e-011 -7.73091 5.47488 -0.417314 1.47136e-010 -1.24874e-010 -8.0151e-011 -2.90554 0.965183 -0.102902 1.47135e-010 -1.24873e-010 -8.01495e-011 -10.2786 0.731801 -0.0259123 1.47142e-010 -1.24871e-010 -8.01567e-011 -2.22167 -0.733487 0.20892 -2.03217e-016 0 -3.88251e-019 8.71877 -15.739 20.1328 -0.162708 32.7704 0.716722 -10.3567 -16.4911 -26.4331 2.03217e-016 0 3.88251e-019 -3.13713 -13.5234 -16.212 0.193808 33.0878 -0.754743 8.73593 -19.0885 19.8521 
74.1149 83.6373 8.69998 0.160661 -1.55162 -84.4804 -0.428328 12.8289 0.725566 -0.190972 -0.528911 0.311863 6.0637 8.18297 4.22941 -8.05208 -30.415 5.61476 -0 0 0 -0 0 0 2.25841e-014 -9.45994e-013 -8.08029e-014 83.1429 31.5902 -11.8745 -19.5715 -12.4816 37.6514 -0.901894 -25.9229 -3.91706 -4.31582e-010 6.10432e-012 6.19894e-011 -7.48575e-010 1.87561e-011 9.87646e-011 -4.31576e-010 6.1051e-012 6.1985e-011 7.73091 5.47488 0.417314 -4.31585e-010 6.10201e-012 6.19996e-011 2.90554 0.965183 0.102902 -4.31576e-010 6.10395e-012 6.19944e-011 10.2786 0.731801 0.0259123 -4.31592e-010 6.10613e-012 6.20065e-011 2.22167 -0.733487 -0.20892 2.25042e-014 -9.45991e-013 -8.10203e-014 -76.1985 42.0971 1.54285 17.9457 -10.6278 -33.9 0.0385257 -5.59269 0.788533 2.41596e-010 -1.01709e-010 -2.02752e-010 4.21118e-010 -1.76245e-010 -3.50901e-010 2.41586e-010 -1.01706e-010 -2.0274e-010 -7.73091 5.47488 -0.417314 2.41596e-010 -1.01705e-010 -2.02753e-010 -2.90554 0.965183 -0.102902 2.41592e-010 -1.01704e-010 -2.02752e-010 -10.2786 0.731801 -0.0259123 2.41599e-010 -1.01702e-010 -2.0276e-010 -2.22167 -0.733487 0.20892 -2.03217e-016 0 -3.88251e-019 8.93776 -15.7415 20.0905 -0.163203 32.8333 0.716537 -10.3329 -16.5274 -26.3539 2.03217e-016 0 3.88251e-019 -2.89502 -13.6223 -16.0191 0.197554 33.3718 -0.762803 8.76215 -19.3525 19.7155 
74.0704 83.5984 8.71275 0.13619 -1.76093 -84.429 -0.146789 13.1422 0.599938 -0.216972 -0.671294 0.286701 6.20618 8.30593 4.29546 -8.33899 -30.6725 5.65174 -0 0 0 -0 0 0 2.35812e-014 -8.7342e-013 -7.04323e-014 83.0954 31.5513 -11.9106 -19.5982 -12.5142 37.7153 -0.904618 -25.9586 -3.92329 -4.1458e-010 -1.13662e-010 2.02527e-010 -7.21374e-010 -1.91119e-010 3.42796e-010 -4.14575e-010 -1.1366e-010 2.02523e-010 7.73091 5.47488 0.417314 -4.14582e-010 -1.13662e-010 2.02532e-010 2.90554 0.965183 0.102902 -4.14576e-010 -1.13662e-010 2.02535e-010 10.2786 0.731801 0.0259123 -4.14591e-010 -1.1366e-010 2.02548e-010 2.22167 -0.733487 -0.20892 2.34593e-014 -8.73416e-013 -7.0673e-014 -76.16 42.8393 1.86518 17.9454 -10.6275 -33.8995 0.038742 -5.60857 0.790786 3.10796e-010 -6.83187e-011 -2.9478e-010 5.40496e-010 -1.18543e-010 -5.10296e-010 3.10787e-010 -6.8313e-011 -2.9477e-010 -7.73091 5.47488 -0.417314 3.10797e-010 -6.8311e-011 -2.9478e-010 -2.90554 0.965183 -0.102902 3.10791e-010 -6.83096e-011 -2.94781e-010 -10.2786 0.731801 -0.0259123 3.10798e-010 -6.83087e-011 -2.94789e-010 -2.22167 -0.733487 0.20892 -2.03217e-016 0 -3.88251e-019 9.15974 -15.7846 20.0658 -0.164009 32.9146 0.716684 -10.303 -16.5489 -26.2739 2.03217e-016 0 3.88251e-019 -2.65941 -13.7512 -15.8268 0.201337 33.6507 -0.77053 8.78214 -19.6042 19.5771 
74.0099 83.5576 8.65361 0.15947 -1.8589 -84.3697 -0.00592392 13.4878 0.505158 -0.22662 -0.809132 0.265707 6.3277 8.41734 4.34004 -8.64302 -30.99 5.63896 -0 0 0 -0 0 0 2.23351e-014 -7.58701e-013 -5.55106e-014 83.0085 31.468 -11.9238 -19.6528 -12.5814 37.8438 -0.908765 -26.0131 -3.93278 -3.54711e-010 -1.43253e-010 2.53557e-010 -6.18059e-010 -2.44849e-010 4.32556e-010 -3.54706e-010 -1.4325e-010 2.53554e-010 7.73091 5.47488 0.417314 -3.54713e-010 -1.43252e-010 2.5356e-010 2.90554 0.965183 0.102902 -3.54708e-010 -1.43253e-010 2.53567e-010 10.2786 0.731801 0.0259123 -3.54722e-010 -1.43251e-010 2.53579e-010 2.22167 -0.733487 -0.20892 2.21941e-014 -7.58697e-013 -5.57591e-014 -76.0899 43.5951 2.23312 17.9832 -10.6686 -33.9826 0.0391245 -5.63652 0.794753 3.41499e-010 -5.01955e-011 -3.19477e-010 5.92768e-010 -8.72076e-011 -5.53033e-010 3.41491e-010 -5.01892e-011 -3.19468e-010 -7.73091 5.47488 -0.417314 3.41501e-010 -5.0187e-011 -3.19477e-010 -2.90554 0.965183 -0.102902 3.41494e-010 -5.01855e-011 -3.19478e-010 -10.2786 0.731801 -0.0259123 3.41501e-010 -5.01852e-011 -3.19487e-010 -2.22167 -0.733487 0.20892 -2.03217e-016 0 -3.88251e-019 9.27038 -15.9248 20.0493 -0.165667 33.046 0.719319 -10.2934 -16.5907 -26.2091 2.03217e-016 0 3.88251e-019 -2.54129 -13.9352 -15.6392 0.204495 33.8778 -0.776114 8.77832 -19.7915 19.4365 
73.9365 83.517 8.60588 0.240285 -1.7799 -84.2943 -0.0746081 13.8327 0.457702 -0.206044 -0.941695 0.250792 6.42188 8.5031 4.3489 -8.96982 -31.3424 5.54757 -0 0 0 -0 0 0 1.84435e-014 -5.8424e-013 -3.46246e-014 82.8895 31.303 -11.9112 -19.7279 -12.6728 38.026 -0.914298 -26.0853 -3.94538 -2.22854e-010 -2.91968e-011 1.70002e-010 -3.87151e-010 -4.98636e-011 2.90393e-010 -2.22849e-010 -2.91949e-011 1.70001e-010 7.73091 5.47488 0.417314 -2.22855e-010 -2.91966e-011 1.70007e-010 2.90554 0.965183 0.102902 -2.22852e-010 -2.91967e-011 1.7001e-010 10.2786 0.731801 0.0259123 -2.22863e-010 -2.91943e-011 1.70021e-010 2.22167 -0.733487 -0.20892 1.83196e-014 -5.84237e-013 -3.48494e-014 -75.9726 44.3668 2.61404 18.0505 -10.7401 -34.1367 0.0391887 -5.62538 0.793197 2.79913e-010 -5.33659e-011 -2.3387e-010 4.84478e-010 -9.26495e-011 -4.04786e-010 2.79906e-010 -5.33613e-011 -2.33861e-010 -7.73091 5.47488 -0.417314 2.79914e-010 -5.33603e-011 -2.33871e-010 -2.90554 0.965183 -0.102902 2.79906e-010 -5.33592e-011 -2.33871e-010 -10.2786 0.731801 -0.0259123 2.79915e-010 -5.33591e-011 -2.3388e-010 -2.22167 -0.733487 0.20892 -2.03217e-016 0 -3.88251e-019 9.20806 -16.1843 20.0408 -0.168542 33.2465 0.725772 -10.3247 -16.6699 -26.1842 2.03217e-016 0 3.88251e-019 -2.59426 -14.1712 -15.4471 0.206391 34.0153 -0.77845 8.74472 -19.9016 19.2898 
73.8472 83.48 8.56991 0.362873 -1.58945 -84.2076 -0.272653 14.1946 0.442628 -0.169998 -1.07798 0.240527 6.51205 8.58043 4.33485 -9.34182 -31.7388 5.39499 -0 0 0 -0 0 0 1.2246e-014 -3.43915e-013 -7.56314e-015 82.7469 31.0821 -11.8774 -19.8175 -12.7814 38.2472 -0.921163 -26.1741 -3.96092 -3.37083e-011 1.79975e-010 -2.70664e-012 -5.50466e-011 3.09565e-010 -5.22112e-012 -3.37031e-011 1.79975e-010 -2.70564e-012 7.73091 5.47488 0.417314 -3.37088e-011 1.79974e-010 -2.69812e-012 2.90554 0.965183 0.102902 -3.37061e-011 1.79975e-010 -2.70323e-012 10.2786 0.731801 0.0259123 -3.37158e-011 1.79978e-010 -2.69451e-012 2.22167 -0.733487 -0.20892 1.21618e-014 -3.43915e-013 -7.74639e-015 -75.8279 45.1413 3.02654 18.1416 -10.8363 -34.3489 0.0390132 -5.58607 0.787663 1.49853e-010 -6.44913e-011 -6.86189e-011 2.56994e-010 -1.11785e-010 -1.18631e-010 1.49846e-010 -6.44901e-011 -6.86113e-011 -7.73091 5.47488 -0.417314 1.49852e-010 -6.44912e-011 -6.86226e-011 -2.90554 0.965183 -0.102902 1.49845e-010 -6.44909e-011 -6.86217e-011 -10.2786 0.731801 -0.0259123 1.49855e-010 -6.44906e-011 -6.86286e-011 -2.22167 -0.733487 0.20892 -2.03217e-016 0 -3.88251e-019 9.04422 -16.5306 20.045 -0.172339 33.4954 0.734689 -10.3783 -16.7652 -26.1838 2.03217e-016 0 3.88251e-019 -2.75029 -14.4491 -15.2515 0.207471 34.0964 -0.778669 8.69179 -19.9616 19.1387 
73.7246 83.4315 8.50162 0.51578 -1.37101 -84.1182 -0.507016 14.6348 0.434478 -0.138499 -1.21287 0.231683 6.59564 8.66818 4.32027 -9.73448 -32.2286 5.23087 -0 0 0 -0 0 0 4.39307e-015 -8.19109e-014 2.23357e-014 82.5583 30.8697 -11.8259 -19.9398 -12.9334 38.5439 -0.929581 -26.2828 -3.97995 1.58228e-010 4.00351e-010 -1.97218e-010 2.82223e-010 6.88359e-010 -3.38423e-010 1.58233e-010 4.00349e-010 -1.97215e-010 7.73091 5.47488 0.417314 1.58228e-010 4.00347e-010 -1.97206e-010 2.90554 0.965183 0.102902 1.5823e-010 4.00351e-010 -1.97219e-010 10.2786 0.731801 0.0259123 1.58222e-010 4.00354e-010 -1.97213e-010 2.22167 -0.733487 -0.20892 4.35143e-015 -8.19129e-014 2.21862e-014 -75.6884 45.9212 3.53941 18.2777 -10.9845 -34.6577 0.0396167 -5.62553 0.79327 5.44898e-011 -8.00166e-011 1.02582e-010 8.95702e-011 -1.38504e-010 1.78005e-010 5.44831e-011 -8.00188e-011 1.02589e-010 -7.73091 5.47488 -0.417314 5.44871e-011 -8.0022e-011 1.02576e-010 -2.90554 0.965183 -0.102902 5.44809e-011 -8.00224e-011 1.02578e-010 -10.2786 0.731801 -0.0259123 5.44925e-011 -8.00219e-011 1.02572e-010 -2.22167 -0.733487 0.20892 -2.03217e-016 0 -3.88251e-019 8.86419 -16.9382 20.0603 -0.176606 33.766 0.744191 -10.422 -16.8542 -26.1644 2.03217e-016 0 3.88251e-019 -2.93785 -14.7842 -15.073 0.208688 34.1816 -0.778296 8.62693 -19.9796 18.9901 
73.5587 83.3806 8.41581 0.688056 -1.21014 -84.0246 -0.683868 15.2144 0.407615 -0.131588 -1.34129 0.221033 6.66992 8.78518 4.32757 -10.1221 -32.8617 5.10562 -0 0 0 -0 0 0 -4.46488e-015 1.57588e-013 5.17337e-014 82.3012 30.7304 -11.7599 -20.1122 -13.1534 38.9528 -0.93979 -26.4144 -4.00302 2.98457e-010 5.48018e-010 -3.46178e-010 5.28627e-010 9.41438e-010 -5.93349e-010 2.98463e-010 5.48016e-010 -3.46178e-010 7.73091 5.47488 0.417314 2.98457e-010 5.48014e-010 -3.46165e-010 2.90554 0.965183 0.102902 2.98459e-010 5.48018e-010 -3.46182e-010 10.2786 0.731801 0.0259123 2.98453e-010 5.48022e-010 -3.46178e-010 2.22167 -0.733487 -0.20892 -4.4807e-015 1.57585e-013 5.15846e-014 -75.5924 46.7073 4.22556 18.4783 -11.2103 -35.1022 0.0421676 -5.8507 0.82516 9.69965e-011 -9.63867e-011 2.0604e-010 1.61459e-010 -1.66696e-010 3.57699e-010 9.69902e-011 -9.63907e-011 2.06046e-010 -7.73091 5.47488 -0.417314 9.69923e-011 -9.63953e-011 2.06033e-010 -2.90554 0.965183 -0.102902 9.69872e-011 -9.6396e-011 2.06036e-010 -10.2786 0.731801 -0.0259123 9.69994e-011 -9.63955e-011 2.0603e-010 -2.22167 -0.733487 0.20892 -2.03217e-016 0 -3.88251e-019 8.7533 -17.3816 20.0847 -0.180835 34.0312 0.75236 -10.4233 -16.9146 -26.0824 2.03217e-016 0 3.88251e-019 -3.08575 -15.1916 -14.9323 0.211006 34.3312 -0.778872 8.5575 -19.9637 18.851 
